<svg version="1.1" id="Layer_1" xmlns="http://www.w3.org/2000/svg" xmlns:xlink="http://www.w3.org/1999/xlink" x="0px" y="0px"
	 width="100%" viewBox="0 0 512 442" enable-background="new 0 0 512 442" xml:space="preserve">
<path fill="#F4B503" opacity="1.000000" stroke="none" 
	d="
M513.000000,413.000000 
	C513.000000,413.444427 513.000000,413.888885 512.674194,414.772156 
	C511.133698,417.334595 509.899109,419.447083 508.707794,421.583740 
	C502.189575,433.274139 492.174255,439.488861 478.876984,439.923676 
	C468.602234,440.259674 458.307312,439.977814 447.994873,439.610657 
	C447.181488,437.633728 446.736328,435.687134 445.549103,434.456390 
	C440.149994,428.859589 434.541992,423.464294 428.836060,417.712677 
	C427.185974,415.864227 425.686859,414.319794 424.236267,412.731079 
	C420.134888,408.239166 416.053406,403.729126 412.433868,399.170898 
	C428.867889,399.088928 444.832275,399.088348 460.796265,399.004547 
	C462.933777,398.993347 465.803589,399.882324 466.066101,395.672089 
	C466.150787,326.961853 466.160278,258.724609 466.182648,190.487366 
	C466.183350,188.329147 466.316956,186.170944 466.701721,183.913300 
	C468.426056,181.447617 470.277557,179.237396 471.180115,176.690857 
	C479.803925,152.359680 487.061279,127.633919 491.695618,102.205925 
	C496.043243,78.350815 499.744507,54.414032 500.049744,30.079641 
	C500.093231,26.610832 500.415192,23.076021 501.233917,19.724590 
	C501.515411,18.572386 503.705841,17.886543 505.270752,17.217201 
	C508.011536,22.297834 510.505768,27.148912 513.000000,31.999996 
	C513.000000,158.355972 513.000000,284.711945 512.876953,411.634705 
	C512.603516,412.534698 512.685547,412.800903 513.000000,413.000000 
z"/>
<path fill="#F4B608" opacity="1.000000" stroke="none" 
	d="
M1.000000,412.000000 
	C1.000000,391.645782 1.000000,371.291534 1.409963,350.549164 
	C4.119607,350.440613 6.424321,350.995972 8.718138,350.954102 
	C21.679073,350.717651 34.637394,350.337921 47.683517,350.467651 
	C47.834221,365.981903 47.898014,381.035522 48.001255,396.487488 
	C50.170952,397.608276 52.300220,398.958801 54.431591,398.962128 
	C123.518410,399.069946 192.605423,399.055237 261.692413,399.039551 
	C276.174622,399.036255 290.656860,398.958038 305.450562,398.940765 
	C306.176758,399.020782 306.591461,399.074402 307.078186,399.455566 
	C313.433868,406.187927 319.717529,412.592743 326.170715,419.283447 
	C331.299713,424.603149 336.279053,429.617737 341.207764,434.681580 
	C342.864197,436.383392 344.391937,438.210449 345.511200,439.981812 
	C242.098679,439.987335 139.153488,439.981842 36.208286,440.009247 
	C25.359148,440.012146 16.206682,435.907532 9.508186,427.664490 
	C5.824714,423.131622 3.782308,417.265167 1.000000,412.000000 
z"/>
<path fill="#F3BA18" opacity="1.000000" stroke="none" 
	d="
M1.000000,163.000000 
	C1.000000,119.979103 1.000000,76.958214 1.222319,33.179344 
	C5.708626,15.535241 18.750145,4.141327 34.548992,4.072527 
	C65.036301,3.939762 95.524734,4.066403 126.008850,4.545692 
	C125.663933,13.768354 125.588486,22.552582 124.873077,31.284376 
	C124.498840,35.852032 123.000343,40.327583 121.541107,44.882858 
	C120.074654,44.937458 119.076706,44.968071 118.078751,44.968323 
	C96.451462,44.973740 74.824127,44.956940 53.196949,45.007740 
	C51.046318,45.012791 48.190517,44.171986 47.946934,48.369133 
	C47.866776,70.956322 47.877655,93.072357 47.829285,115.188271 
	C47.795116,130.813538 47.680653,146.438644 47.197712,162.052002 
	C42.715282,162.563400 38.638515,163.514893 34.558807,163.527695 
	C23.373201,163.562790 12.186356,163.203293 1.000000,163.000000 
z"/>
<path fill="#F5B910" opacity="1.000000" stroke="none" 
	d="
M1.000000,163.468658 
	C12.186356,163.203293 23.373201,163.562790 34.558807,163.527695 
	C38.638515,163.514893 42.715282,162.563400 47.310905,162.040924 
	C47.828419,162.041687 48.048450,161.983994 47.964531,162.447083 
	C47.861324,187.495712 47.811409,212.081284 47.834217,236.666779 
	C47.847927,251.445755 47.975021,266.224640 47.967854,281.465637 
	C47.788563,304.620789 47.692585,327.313904 47.596607,350.006989 
	C34.637394,350.337921 21.679073,350.717651 8.718138,350.954102 
	C6.424321,350.995972 4.119607,350.440613 1.409963,350.080505 
	C1.000000,287.979095 1.000000,225.958206 1.000000,163.468658 
z"/>
<path fill="#ECA206" opacity="1.000000" stroke="none" 
	d="
M1.000000,412.444153 
	C3.782308,417.265167 5.824714,423.131622 9.508186,427.664490 
	C16.206682,435.907532 25.359148,440.012146 36.208286,440.009247 
	C139.153488,439.981842 242.098679,439.987335 345.982300,439.987732 
	C380.620941,439.984955 414.321167,439.977783 448.021362,439.970642 
	C458.307312,439.977814 468.602234,440.259674 478.876984,439.923676 
	C492.174255,439.488861 502.189575,433.274139 508.707794,421.583740 
	C509.899109,419.447083 511.133698,417.334595 512.674194,415.105469 
	C513.000000,416.388885 513.000000,417.777802 512.724731,419.249359 
	C512.186401,419.534882 511.787811,419.682739 511.680054,419.948547 
	C507.582336,430.055328 500.935944,437.585358 490.385773,441.263702 
	C490.091187,441.366425 490.121307,442.400299 490.000000,443.000000 
	C334.979095,443.000000 179.958206,443.000000 24.802292,442.728455 
	C24.466219,442.192932 24.320984,441.793793 24.056086,441.684387 
	C14.006392,437.533630 6.319127,431.045990 2.733103,420.400635 
	C2.633828,420.105927 1.598721,420.126465 1.000000,420.000000 
	C1.000000,417.629425 1.000000,415.258881 1.000000,412.444153 
z"/>
<path fill="#F6C539" opacity="1.000000" stroke="none" 
	d="
M126.012703,4.085495 
	C95.524734,4.066403 65.036301,3.939762 34.548992,4.072527 
	C18.750145,4.141327 5.708626,15.535241 1.222319,32.710686 
	C1.000000,30.299986 1.000000,27.599974 1.264650,24.788839 
	C1.990083,24.224968 2.670144,23.855740 2.879121,23.307079 
	C6.686391,13.311286 13.428251,6.323280 23.608242,2.743322 
	C23.906321,2.638497 23.876785,1.602064 24.000000,1.000000 
	C179.020889,1.000000 334.041779,1.000000 489.194183,1.272697 
	C489.524109,1.807554 489.667236,2.205899 489.928986,2.312207 
	C500.047668,6.421926 507.644775,13.025898 511.282074,23.641853 
	C511.378845,23.924276 512.406494,23.887768 513.000000,23.999996 
	C513.000000,26.370558 513.000000,28.741116 513.000000,31.555832 
	C510.505768,27.148912 508.011536,22.297834 505.104309,16.927547 
	C498.299500,8.730905 490.122192,4.140557 480.145081,4.077833 
	C448.434662,3.878476 416.721985,4.044655 384.540833,4.046787 
	C344.385193,4.042407 304.698944,4.060808 264.543518,4.061483 
	C218.053818,4.057669 172.033264,4.071582 126.012703,4.085495 
z"/>
<path fill="#000000" opacity="1.000000" stroke="none" 
	d="
M23.531263,1.000000 
	C23.876785,1.602064 23.906321,2.638497 23.608242,2.743322 
	C13.428251,6.323280 6.686391,13.311286 2.879121,23.307079 
	C2.670144,23.855740 1.990083,24.224968 1.264650,24.338860 
	C1.000000,16.407045 1.000000,8.814090 1.000000,1.000000 
	C8.352704,1.000000 15.707616,1.000000 23.531263,1.000000 
z"/>
<path fill="#000000" opacity="1.000000" stroke="none" 
	d="
M513.000000,23.531261 
	C512.406494,23.887768 511.378845,23.924276 511.282074,23.641853 
	C507.644775,13.025898 500.047668,6.421926 489.928986,2.312207 
	C489.667236,2.205899 489.524109,1.807554 489.662842,1.272697 
	C497.592957,1.000000 505.185913,1.000000 513.000000,1.000000 
	C513.000000,8.352704 513.000000,15.707616 513.000000,23.531261 
z"/>
<path fill="#000000" opacity="1.000000" stroke="none" 
	d="
M1.000000,420.468750 
	C1.598721,420.126465 2.633828,420.105927 2.733103,420.400635 
	C6.319127,431.045990 14.006392,437.533630 24.056086,441.684387 
	C24.320984,441.793793 24.466219,442.192932 24.333633,442.728455 
	C16.407045,443.000000 8.814093,443.000000 1.000000,443.000000 
	C1.000000,435.647308 1.000000,428.292389 1.000000,420.468750 
z"/>
<path fill="#000000" opacity="1.000000" stroke="none" 
	d="
M490.468750,443.000000 
	C490.121307,442.400299 490.091187,441.366425 490.385773,441.263702 
	C500.935944,437.585358 507.582336,430.055328 511.680054,419.948547 
	C511.787811,419.682739 512.186401,419.534882 512.724731,419.666016 
	C513.000000,427.592957 513.000000,435.185913 513.000000,443.000000 
	C505.647308,443.000000 498.292389,443.000000 490.468750,443.000000 
z"/>
<path fill="#ECA206" opacity="1.000000" stroke="none" 
	d="
M513.000000,412.750000 
	C512.685547,412.800903 512.603516,412.534698 512.876953,412.100708 
	C513.000000,412.000000 513.000000,412.500000 513.000000,412.750000 
z"/>
<path fill="#149F5C" opacity="1.000000" stroke="none" 
	d="
M466.388611,184.012741 
	C466.316956,186.170944 466.183350,188.329147 466.182648,190.487366 
	C466.160278,258.724609 466.150787,326.961853 465.600220,395.693207 
	C446.394440,396.224487 427.727814,396.261658 408.860779,396.154694 
	C408.660400,396.010559 408.183105,395.884338 408.178528,395.424622 
	C408.173981,387.868378 408.173981,380.771820 408.173981,373.432556 
	C373.138214,373.432556 338.668488,373.432556 303.642487,373.432556 
	C303.642487,381.129089 303.642487,388.560272 303.198853,396.045593 
	C292.170410,396.053680 281.585571,396.007660 271.071838,395.625885 
	C272.654053,393.818176 273.991394,392.094910 275.702362,390.912079 
	C300.368988,373.859650 323.683563,355.177948 344.715149,333.749237 
	C350.419281,327.937378 356.120300,322.095367 361.410553,315.914368 
	C364.678558,312.096161 367.168121,307.611694 370.469360,303.339050 
	C381.555725,303.208069 392.183044,303.000092 402.802582,303.201996 
	C407.014740,303.282043 408.403442,301.745819 408.125031,297.702667 
	C407.863342,293.902252 407.883118,290.057892 408.115479,286.253418 
	C408.532654,279.423126 405.646332,274.199341 401.115601,269.360352 
	C394.643005,262.447418 386.102081,259.201324 377.838013,254.991638 
	C376.879059,251.988907 375.705566,251.051819 373.635712,254.075256 
	C372.192047,253.726761 371.094482,253.399048 369.929382,252.732986 
	C368.692169,249.892334 367.429749,249.133316 365.591980,252.174820 
	C364.479858,252.073868 363.740143,251.985336 362.903503,251.611526 
	C361.835205,251.290741 360.863892,251.255234 359.502441,251.221085 
	C358.075134,251.145920 357.037964,251.069397 356.070496,250.651459 
	C361.073090,242.614227 366.096558,234.973953 370.871857,227.181595 
	C371.994934,225.348953 372.280640,223.003128 373.013000,220.586426 
	C373.439209,219.525070 373.804016,218.770676 374.523926,217.989471 
	C376.089355,216.964005 377.798981,216.212143 378.433258,214.928818 
	C385.357880,200.917725 392.537079,187.009399 398.823425,172.710999 
	C409.898346,147.520782 418.111786,121.323753 423.271942,94.300568 
	C426.190338,79.017258 427.800934,63.484222 430.464081,47.988689 
	C442.624939,47.926842 454.322296,47.939972 466.075195,48.421928 
	C466.139709,86.457321 466.136536,124.023895 466.167725,161.590439 
	C466.173920,169.064590 466.311584,176.538651 466.388611,184.012741 
z"/>
<path fill="#F1B608" opacity="1.000000" stroke="none" 
	d="
M466.701721,183.913300 
	C466.311584,176.538651 466.173920,169.064590 466.167725,161.590439 
	C466.136536,124.023895 466.139709,86.457321 466.044739,48.022713 
	C464.005432,46.425442 462.056732,45.075520 460.098114,45.061005 
	C434.728912,44.872986 409.358307,44.874828 383.991241,44.383682 
	C384.333008,30.648932 384.671600,17.359249 385.010162,4.069568 
	C416.721985,4.044655 448.434662,3.878476 480.145081,4.077833 
	C490.122192,4.140557 498.299500,8.730905 504.857758,16.697992 
	C503.705841,17.886543 501.515411,18.572386 501.233917,19.724590 
	C500.415192,23.076021 500.093231,26.610832 500.049744,30.079641 
	C499.744507,54.414032 496.043243,78.350815 491.695618,102.205925 
	C487.061279,127.633919 479.803925,152.359680 471.180115,176.690857 
	C470.277557,179.237396 468.426056,181.447617 466.701721,183.913300 
z"/>
<path fill="#F0AB03" opacity="1.000000" stroke="none" 
	d="
M447.994873,439.610657 
	C414.321167,439.977783 380.620941,439.984955 346.449646,439.986206 
	C344.391937,438.210449 342.864197,436.383392 341.207764,434.681580 
	C336.279053,429.617737 331.299713,424.603149 326.597321,419.291748 
	C331.822571,419.342804 336.794342,419.993744 341.758087,419.937378 
	C354.729645,419.790039 367.696014,419.194916 380.667603,419.037720 
	C394.498322,418.870117 408.332947,419.045258 422.165100,418.954895 
	C424.448456,418.939972 426.727875,418.330963 429.009125,417.996521 
	C434.541992,423.464294 440.149994,428.859589 445.549103,434.456390 
	C446.736328,435.687134 447.181488,437.633728 447.994873,439.610657 
z"/>
<path fill="#ECA206" opacity="1.000000" stroke="none" 
	d="
M428.836060,417.712677 
	C426.727875,418.330963 424.448456,418.939972 422.165100,418.954895 
	C408.332947,419.045258 394.498322,418.870117 380.667603,419.037720 
	C367.696014,419.194916 354.729645,419.790039 341.758087,419.937378 
	C336.794342,419.993744 331.822571,419.342804 326.427856,419.005859 
	C319.717529,412.592743 313.433868,406.187927 307.544769,399.410583 
	C341.918152,398.993988 375.896942,398.949890 410.224762,398.952942 
	C411.037231,399.075500 411.500641,399.150879 411.964111,399.226196 
	C416.053406,403.729126 420.134888,408.239166 424.236267,412.731079 
	C425.686859,414.319794 427.185974,415.864227 428.836060,417.712677 
z"/>
<path fill="#F6C539" opacity="1.000000" stroke="none" 
	d="
M412.433838,399.170929 
	C411.500641,399.150879 411.037231,399.075500 410.117554,398.703857 
	C409.461304,397.704681 409.261261,397.001770 409.061188,396.298828 
	C427.727814,396.261658 446.394440,396.224487 465.526978,396.166199 
	C465.803589,399.882324 462.933777,398.993347 460.796265,399.004547 
	C444.832275,399.088348 428.867889,399.088928 412.433838,399.170929 
z"/>
<path fill="#19A15F" opacity="1.000000" stroke="none" 
	d="
M47.683517,350.467651 
	C47.692585,327.313904 47.788563,304.620789 48.392540,281.462952 
	C68.837814,278.725952 88.306831,274.413666 107.273582,267.811646 
	C109.871689,266.907288 112.715813,266.709686 115.185852,266.423401 
	C113.268303,268.501251 111.525307,270.271210 109.968803,272.192291 
	C104.126610,279.402740 104.930550,288.002838 104.992676,296.447357 
	C105.041649,303.103180 105.016556,303.118896 111.470337,303.124268 
	C132.886795,303.142090 154.303253,303.147736 176.194550,303.272827 
	C180.828766,303.409790 184.988144,303.447021 189.147552,303.451599 
	C215.432632,303.480438 241.717728,303.502045 267.974976,303.856262 
	C266.753876,305.713470 265.806824,307.551544 264.329956,308.720184 
	C245.770569,323.406433 226.453781,336.939148 205.632935,348.328857 
	C180.693176,361.971832 154.854950,373.462006 127.441383,380.974487 
	C111.424843,385.363678 95.022186,388.331726 78.851051,392.181946 
	C76.406364,392.764008 74.277039,394.670715 71.540085,396.052460 
	C63.372826,396.123199 55.667316,396.106171 47.961807,396.089111 
	C47.898014,381.035522 47.834221,365.981903 47.683517,350.467651 
z"/>
<path fill="#F6C539" opacity="1.000000" stroke="none" 
	d="
M48.001251,396.487488 
	C55.667316,396.106171 63.372826,396.123199 72.001923,396.137970 
	C138.124802,396.152252 203.324097,396.169617 268.523376,396.176056 
	C269.349152,396.176147 270.174957,396.036224 271.000732,395.961670 
	C281.585571,396.007660 292.170410,396.053680 303.509735,396.113647 
	C304.464722,396.196930 304.665222,396.266205 304.900696,396.658569 
	C305.003448,397.625885 305.071259,398.270142 305.139069,398.914368 
	C290.656860,398.958038 276.174622,399.036255 261.692413,399.039551 
	C192.605423,399.055237 123.518410,399.069946 54.431591,398.962128 
	C52.300220,398.958801 50.170952,397.608276 48.001251,396.487488 
z"/>
<path fill="#CFB846" opacity="1.000000" stroke="none" 
	d="
M305.450562,398.940765 
	C305.071259,398.270142 305.003448,397.625885 305.379456,396.581482 
	C317.641846,396.157501 329.460419,396.143616 341.278961,396.107727 
	C363.580383,396.039948 385.881714,395.959503 408.183105,395.884338 
	C408.183105,395.884338 408.660400,396.010559 408.860779,396.154724 
	C409.261261,397.001770 409.461304,397.704681 409.768555,398.656677 
	C375.896942,398.949890 341.918152,398.993988 307.472778,399.083069 
	C306.591461,399.074402 306.176758,399.020782 305.450562,398.940765 
z"/>
<path fill="#23A566" opacity="1.000000" stroke="none" 
	d="
M47.715225,162.052765 
	C47.680653,146.438644 47.795116,130.813538 47.829285,115.188271 
	C47.877655,93.072357 47.866776,70.956322 48.412636,48.351936 
	C70.700127,47.857445 92.456245,47.821957 114.212257,47.854427 
	C132.143997,47.881191 150.075623,47.988457 167.980362,48.449768 
	C164.821030,64.222000 157.970322,78.178139 149.844604,91.282768 
	C143.245880,101.924767 135.672577,112.304939 126.883926,121.167389 
	C113.248985,134.916779 96.960457,145.545456 78.939270,152.805725 
	C69.019775,156.802017 58.369339,158.984009 48.048450,161.983994 
	C48.048450,161.983994 47.828419,162.041687 47.715225,162.052765 
z"/>
<path fill="#F5B913" opacity="1.000000" stroke="none" 
	d="
M126.008850,4.545692 
	C172.033264,4.071582 218.053818,4.057669 264.539642,4.517272 
	C264.337128,18.268709 263.669342,31.546633 262.533813,44.854877 
	C215.380554,44.871712 168.695084,44.858219 122.009598,44.844730 
	C123.000343,40.327583 124.498840,35.852032 124.873077,31.284376 
	C125.588486,22.552582 125.663933,13.768354 126.008850,4.545692 
z"/>
<path fill="#CCA019" opacity="1.000000" stroke="none" 
	d="
M121.541107,44.882858 
	C168.695084,44.858219 215.380554,44.871712 263.001099,44.897327 
	C303.953461,44.882557 343.970734,44.855656 383.988037,44.828754 
	C409.358307,44.874828 434.728912,44.872986 460.098114,45.061005 
	C462.056732,45.075520 464.005432,46.425442 465.989197,47.553886 
	C454.322296,47.939972 442.624939,47.926842 430.000946,47.910347 
	C393.346680,47.889874 357.619019,47.854984 321.891388,47.865841 
	C310.263245,47.869373 298.635193,47.992363 286.543457,47.982651 
	C267.810883,47.886761 249.541840,47.834049 231.272903,47.860268 
	C210.184311,47.890533 189.095840,47.990402 168.007309,48.060047 
	C150.075623,47.988457 132.143997,47.881191 114.212257,47.854427 
	C92.456245,47.821957 70.700127,47.857445 48.478352,47.880726 
	C48.190517,44.171986 51.046318,45.012791 53.196949,45.007740 
	C74.824127,44.956940 96.451462,44.973740 118.078751,44.968323 
	C119.076706,44.968071 120.074654,44.937458 121.541107,44.882858 
z"/>
<path fill="#1FA463" opacity="1.000000" stroke="none" 
	d="
M167.980362,48.449768 
	C189.095840,47.990402 210.184311,47.890533 231.272903,47.860268 
	C249.541840,47.834049 267.810883,47.886761 286.541412,48.419052 
	C286.888733,50.752880 286.928589,52.597305 286.637238,54.387848 
	C282.013367,82.804794 273.261108,109.858055 259.850830,135.376205 
	C259.017151,136.962555 258.610229,138.773178 257.562012,140.558624 
	C240.150528,141.662384 228.124191,150.702942 223.545792,165.588455 
	C220.974518,173.948288 222.336777,181.979279 224.522247,190.073547 
	C221.987869,192.061722 219.736969,193.920853 217.607056,195.909561 
	C206.821869,205.979675 196.102554,216.120819 185.250549,226.118088 
	C184.155502,227.126846 182.325119,227.337387 181.022797,227.635971 
	C182.001984,226.500748 182.825470,225.674545 183.582031,224.791061 
	C193.445587,213.272339 191.669785,195.356918 179.808624,186.632034 
	C167.353775,177.470444 149.492447,180.704315 141.802658,193.513184 
	C133.487366,207.363968 138.514130,224.036926 152.974731,231.113571 
	C159.152771,234.136948 165.456406,234.054092 171.890518,233.154083 
	C170.812241,234.721207 169.991531,236.256287 168.713669,237.094009 
	C163.348114,240.611404 157.763336,243.797485 152.440140,247.374664 
	C150.675919,248.560196 149.455841,250.555496 147.660156,252.338379 
	C135.916443,255.223923 125.163902,259.499298 115.446030,266.184875 
	C112.715813,266.709686 109.871689,266.907288 107.273582,267.811646 
	C88.306831,274.413666 68.837814,278.725952 48.475853,281.000854 
	C47.975021,266.224640 47.847927,251.445755 47.834217,236.666779 
	C47.811409,212.081284 47.861324,187.495712 47.964531,162.447083 
	C58.369339,158.984009 69.019775,156.802017 78.939270,152.805725 
	C96.960457,145.545456 113.248985,134.916779 126.883926,121.167389 
	C135.672577,112.304939 143.245880,101.924767 149.844604,91.282768 
	C157.970322,78.178139 164.821030,64.222000 167.980362,48.449768 
z"/>
<path fill="#F5B80D" opacity="1.000000" stroke="none" 
	d="
M383.991241,44.383682 
	C343.970734,44.855656 303.953461,44.882557 263.468872,44.867004 
	C263.669342,31.546633 264.337128,18.268709 265.008789,4.534999 
	C304.698944,4.060808 344.385193,4.042407 384.540833,4.046787 
	C384.671600,17.359249 384.333008,30.648932 383.991241,44.383682 
z"/>
<path fill="#19A15F" opacity="1.000000" stroke="none" 
	d="
M147.986969,252.180573 
	C149.455841,250.555496 150.675919,248.560196 152.440140,247.374664 
	C157.763336,243.797485 163.348114,240.611404 168.713669,237.094009 
	C169.991531,236.256287 170.812241,234.721207 172.147125,232.944443 
	C175.246017,230.894119 178.041000,229.406235 180.835999,227.918365 
	C182.325119,227.337387 184.155502,227.126846 185.250549,226.118088 
	C196.102554,216.120819 206.821869,205.979675 217.607056,195.909561 
	C219.736969,193.920853 221.987869,192.061722 224.603821,190.426193 
	C229.345596,198.464386 234.887253,204.728302 243.675873,207.759415 
	C256.448517,212.164551 268.400787,211.080978 278.931549,202.458618 
	C289.405609,193.882721 293.620453,182.551163 291.188232,169.089386 
	C288.261078,152.888550 276.581329,142.908401 258.004791,140.479446 
	C258.610229,138.773178 259.017151,136.962555 259.850830,135.376205 
	C273.261108,109.858055 282.013367,82.804794 286.637238,54.387848 
	C286.928589,52.597305 286.888733,50.752880 287.005005,48.497120 
	C298.635193,47.992363 310.263245,47.869373 321.891388,47.865841 
	C357.619019,47.854984 393.346680,47.889874 429.537445,47.985329 
	C427.800934,63.484222 426.190338,79.017258 423.271942,94.300568 
	C418.111786,121.323753 409.898346,147.520782 398.823425,172.710999 
	C392.537079,187.009399 385.357880,200.917725 378.433258,214.928818 
	C377.798981,216.212143 376.089355,216.964005 374.620941,217.617584 
	C378.075531,204.110519 374.885498,192.969070 365.518799,186.384048 
	C355.707489,179.486450 344.228912,179.618805 334.332001,186.743637 
	C324.567200,193.773361 321.274841,206.917877 326.372650,218.521118 
	C330.931915,228.898544 343.107269,235.173218 354.311798,233.231964 
	C362.413300,231.828323 368.159576,227.151077 372.951569,220.893372 
	C372.280640,223.003128 371.994934,225.348953 370.871857,227.181595 
	C366.096558,234.973953 361.073090,242.614227 355.605621,250.677643 
	C344.985779,252.415756 334.900513,253.786240 324.493866,255.048828 
	C285.203888,225.043289 221.921448,228.236008 187.930206,255.679932 
	C185.738586,254.549896 183.670486,253.568939 181.492310,253.050644 
	C170.396378,250.410431 159.204529,250.599792 147.986969,252.180573 
z"/>
<path fill="#17A05E" opacity="1.000000" stroke="none" 
	d="
M271.071838,395.625916 
	C270.174957,396.036224 269.349152,396.176147 268.523376,396.176056 
	C203.324097,396.169617 138.124802,396.152252 72.463669,396.050201 
	C74.277039,394.670715 76.406364,392.764008 78.851051,392.181946 
	C95.022186,388.331726 111.424843,385.363678 127.441383,380.974487 
	C154.854950,373.462006 180.693176,361.971832 205.632935,348.328857 
	C226.453781,336.939148 245.770569,323.406433 264.329956,308.720184 
	C265.806824,307.551544 266.753876,305.713470 268.438171,303.783630 
	C276.881866,303.400116 284.834778,303.468567 292.787109,303.428223 
	C308.018951,303.350983 323.250519,303.211945 338.919952,303.127411 
	C349.574219,303.246277 359.790680,303.336304 370.007172,303.426331 
	C367.168121,307.611694 364.678558,312.096161 361.410553,315.914368 
	C356.120300,322.095367 350.419281,327.937378 344.715149,333.749237 
	C323.683563,355.177948 300.368988,373.859650 275.702362,390.912079 
	C273.991394,392.094910 272.654053,393.818176 271.071838,395.625916 
z"/>
<path fill="#5CBD8E" opacity="1.000000" stroke="none" 
	d="
M370.469360,303.339050 
	C359.790680,303.336304 349.574219,303.246277 338.900208,302.654663 
	C338.430664,295.340820 338.295532,288.525940 338.439606,281.716980 
	C338.598999,274.185181 336.029175,267.718933 331.256073,262.061798 
	C329.228851,259.659088 326.969269,257.452484 324.815277,255.156738 
	C334.900513,253.786240 344.985779,252.415756 355.535889,251.019073 
	C357.037964,251.069397 358.075134,251.145920 359.779114,251.394394 
	C361.297424,251.676498 362.148926,251.786636 363.000458,251.896790 
	C363.740143,251.985336 364.479858,252.073868 365.883118,252.364594 
	C367.696777,252.734970 368.846832,252.903137 369.996918,253.071320 
	C371.094482,253.399048 372.192047,253.726761 373.909271,254.281799 
	C375.638763,254.791779 376.748596,255.074432 377.858429,255.357086 
	C386.102081,259.201324 394.643005,262.447418 401.115601,269.360352 
	C405.646332,274.199341 408.532654,279.423126 408.115479,286.253418 
	C407.883118,290.057892 407.863342,293.902252 408.125031,297.702667 
	C408.403442,301.745819 407.014740,303.282043 402.802582,303.201996 
	C392.183044,303.000092 381.555725,303.208069 370.469360,303.339050 
z"/>
<path fill="#EFF0EF" opacity="1.000000" stroke="none" 
	d="
M408.178528,395.424622 
	C385.881714,395.959503 363.580383,396.039948 341.278961,396.107727 
	C329.460419,396.143616 317.641846,396.157501 305.344482,396.258423 
	C304.665222,396.266205 304.464722,396.196930 303.953369,396.059540 
	C303.642487,388.560272 303.642487,381.129089 303.642487,373.432556 
	C338.668488,373.432556 373.138214,373.432556 408.173981,373.432556 
	C408.173981,380.771820 408.173981,387.868378 408.178528,395.424622 
z"/>
<path fill="#5CBD8E" opacity="1.000000" stroke="none" 
	d="
M373.013000,220.586426 
	C368.159576,227.151077 362.413300,231.828323 354.311798,233.231964 
	C343.107269,235.173218 330.931915,228.898544 326.372650,218.521118 
	C321.274841,206.917877 324.567200,193.773361 334.332001,186.743637 
	C344.228912,179.618805 355.707489,179.486450 365.518799,186.384048 
	C374.885498,192.969070 378.075531,204.110519 374.265808,217.644409 
	C373.804016,218.770676 373.439209,219.525070 373.013000,220.586426 
z"/>
<path fill="#19A15F" opacity="1.000000" stroke="none" 
	d="
M377.838013,254.991638 
	C376.748596,255.074432 375.638763,254.791779 374.255371,254.302582 
	C375.705566,251.051819 376.879059,251.988907 377.838013,254.991638 
z"/>
<path fill="#19A15F" opacity="1.000000" stroke="none" 
	d="
M369.929382,252.732971 
	C368.846832,252.903137 367.696777,252.734970 366.255554,252.377014 
	C367.429749,249.133316 368.692169,249.892334 369.929382,252.732971 
z"/>
<path fill="#19A15F" opacity="1.000000" stroke="none" 
	d="
M362.903503,251.611511 
	C362.148926,251.786636 361.297424,251.676498 360.169250,251.393036 
	C360.863892,251.255234 361.835205,251.290741 362.903503,251.611511 
z"/>
<path fill="#F6F7F7" opacity="1.000000" stroke="none" 
	d="
M324.493866,255.048828 
	C326.969269,257.452484 329.228851,259.659088 331.256073,262.061798 
	C336.029175,267.718933 338.598999,274.185181 338.439606,281.716980 
	C338.295532,288.525940 338.430664,295.340820 338.462433,302.625793 
	C323.250519,303.211945 308.018951,303.350983 292.787109,303.428223 
	C284.834778,303.468567 276.881866,303.400116 268.466003,303.453430 
	C241.717728,303.502045 215.432632,303.480438 189.147552,303.451599 
	C184.988144,303.447021 180.828766,303.409790 176.187836,302.793640 
	C175.707932,295.708191 175.939606,289.206726 175.655807,282.727783 
	C175.256622,273.614838 178.787643,266.241028 184.834503,259.781372 
	C185.949539,258.590179 186.949753,257.291473 188.002960,256.042389 
	C221.921448,228.236008 285.203888,225.043289 324.493866,255.048828 
z"/>
<path fill="#62BF91" opacity="1.000000" stroke="none" 
	d="
M187.930206,255.679932 
	C186.949753,257.291473 185.949539,258.590179 184.834503,259.781372 
	C178.787643,266.241028 175.256622,273.614838 175.655807,282.727783 
	C175.939606,289.206726 175.707932,295.708191 175.713013,302.678833 
	C154.303253,303.147736 132.886795,303.142090 111.470337,303.124268 
	C105.016556,303.118896 105.041649,303.103180 104.992676,296.447357 
	C104.930550,288.002838 104.126610,279.402740 109.968803,272.192291 
	C111.525307,270.271210 113.268303,268.501251 115.185852,266.423401 
	C125.163902,259.499298 135.916443,255.223923 147.660156,252.338379 
	C159.204529,250.599792 170.396378,250.410431 181.492310,253.050644 
	C183.670486,253.568939 185.738586,254.549896 187.930206,255.679932 
z"/>
<path fill="#F6F7F7" opacity="1.000000" stroke="none" 
	d="
M257.562012,140.558624 
	C276.581329,142.908401 288.261078,152.888550 291.188232,169.089386 
	C293.620453,182.551163 289.405609,193.882721 278.931549,202.458618 
	C268.400787,211.080978 256.448517,212.164551 243.675873,207.759415 
	C234.887253,204.728302 229.345596,198.464386 224.943085,190.356903 
	C222.336777,181.979279 220.974518,173.948288 223.545792,165.588455 
	C228.124191,150.702942 240.150528,141.662384 257.562012,140.558624 
z"/>
<path fill="#62BF91" opacity="1.000000" stroke="none" 
	d="
M181.022797,227.635956 
	C178.041000,229.406235 175.246017,230.894119 172.194427,232.591644 
	C165.456406,234.054092 159.152771,234.136948 152.974731,231.113571 
	C138.514130,224.036926 133.487366,207.363968 141.802658,193.513184 
	C149.492447,180.704315 167.353775,177.470444 179.808624,186.632034 
	C191.669785,195.356918 193.445587,213.272339 183.582031,224.791061 
	C182.825470,225.674545 182.001984,226.500748 181.022797,227.635956 
z"/>
</svg>