<svg width="100px" height="100px" viewBox="0 -0.98 100 100" xmlns="http://www.w3.org/2000/svg">
  <path id="globe" d="M606.178,182.38c-.051-.239.109-.27.281-.283a120.064,120.064,0,0,1,14.193.283c2.567-.2,4.255.473,6.526.569,2.191.171,3.642,1.086,5.675,1.418a27.008,27.008,0,0,1,4.542,3.69c1.391,1.253,2.916,2.382,4.257,3.688,1.406,1.337,3.085,2.4,4.54,3.69a31.244,31.244,0,0,0,3.971,3.973c.286,1.134,1.213,1.629,1.7,2.554a15.448,15.448,0,0,0,1.7,2.271,1.241,1.241,0,0,0,.568,1.135c3.3,7.486,4.786,16.782,4.258,28.1a92.057,92.057,0,0,1-2.555,13.62q-1.086,2.892-1.986,5.961a14.145,14.145,0,0,0-1.137,2.837c-.423.241-.411.914-.566,1.419a1.387,1.387,0,0,0-.568,1.419c-1.135.946-1.667,2.5-2.555,3.69-.653,1.332-1.739,2.23-2.272,3.689-1.77,1.35-2.993,3.248-4.54,4.825a34.42,34.42,0,0,0-4.536,3.121c-9.747,4.948-25.715,7.674-39.734,4.824-13.148-2.461-22.452-8.767-30.081-16.743a2.3,2.3,0,0,0-.851-1.7c-.5-.259-.521-.994-.851-1.419a7.737,7.737,0,0,1-1.7-3.122c-1.322-1.9-2.1-4.33-3.407-6.243-.476-3.119-1.527-5.662-1.7-9.081-.745-2.853-.387-6.8-.853-9.932.318-2.428.669-4.82.853-7.38.595-.257.1-1.6.849-1.7-.228-.983.425-1.09.286-1.985a12.441,12.441,0,0,0,1.42-3.406,15.864,15.864,0,0,0,1.7-3.122,12.436,12.436,0,0,0,1.705-2.838c1.055-.553,1.286-1.932,2.27-2.554.291-1.316,1.729-1.487,1.985-2.838.97-2.154,2.52-3.723,3.691-5.676,2.964-2.712,5.648-5.7,9.367-7.662,3.441-2.235,6.877-4.473,10.5-6.527,1.038.187,1.086-.615,1.986-.568.093-.664,1.237-.275,1.42-.851,2.964-.44,5.41-1.4,9.08-1.136Zm0,5.391c-.579.653-2.358.105-3.408.286-1.564.894-3.932.986-5.675,1.7a94.024,94.024,0,0,0-5.108,17.879c4.84.742,10.532.632,15.611,1.135-.228-6.964-1.345-13.906-.569-21h-.851Zm18.729,9.367c-.616-1.652-1.873-2.664-2.554-4.258-1.429-.839-1.608-2.934-3.405-3.4-2.016-.634-5.183-.117-7.662-.285.159,6.844.833,13.167,1.419,19.582a49.612,49.612,0,0,0,15.893-1.7C627.924,203.2,626.334,200.251,624.907,197.138Zm-38.026-1.987c-.6,1.3-1.808,1.979-2.84,2.838-.41.913-1.057,1.59-1.416,2.555-.582.495-.559-.212-1.136.283-.491,1.59-2.032,2.131-2.555,3.69,3.291.4,5.329,2.052,8.8,2.271a79.936,79.936,0,0,1,4.824-15.326C590.223,192.252,588.979,194.129,586.881,195.151Zm41.431-1.7c.163.242.163.643.286.852.33.573.586.995.85,1.418a14.874,14.874,0,0,1,.852,1.42,41.067,41.067,0,0,1,3.122,7.945c1.8-.091,2.592-1.19,4.259-1.418.986-.9,2.58-1.2,3.4-2.27-1.286-2.025-3.747-2.874-5.108-4.824-3.165-1.188-5.551-3.152-8.514-4.542C626.44,191.911,628.377,193.54,628.312,193.448Zm19.865,22.7c-.742-3.514-2.257-6.257-3.121-9.65-.284,0-.338-.229-.569-.284a45.754,45.754,0,0,1-9.364,4.826,118.2,118.2,0,0,1,1.417,19.582h5.677c2.39-1.208,5.056-2.138,7.38-3.407A56.6,56.6,0,0,0,648.177,216.152Zm-72.366-8.229c-.067.4-.47.477-.569.85a44.155,44.155,0,0,0-2.836,3.406c-.941,1.141-1.255,2.9-2.553,3.689a8.394,8.394,0,0,1-1.705,3.973c-.51,3.461-1.948,5.995-1.7,10.217,5.232,1.576,11.547,2.075,18.164,2.27a132.517,132.517,0,0,1,1.7-19.866A56.527,56.527,0,0,1,575.811,207.923Zm54.205,5.107c-.017-.172-.04-.336-.282-.284-.065.222-.238.33-.57.284a48.894,48.894,0,0,1-16.177,1.7c.4,5.945,1.011,11.664,1.136,17.878,5.9-.249,11.356-.944,17.028-1.419A98.611,98.611,0,0,0,630.016,213.03Zm-39.163.285c-.639,5.922-1.518,13-.853,19.3,5.974.554,12.883.172,19.3.284-.513-5.922-.964-11.9-1.136-18.162C602.3,214.358,596.347,214.061,590.853,213.315ZM648.747,238a4.069,4.069,0,0,0,.85-1.987v-3.689c-.539-.063-.627.32-1.135.283a26.262,26.262,0,0,1-11.635,3.122c-.417,3.824.389,9.207-.287,15.041,2.516.987,4.688,2.317,7.383,3.122C646.175,249.246,648.238,244.4,648.747,238Zm-80.029,3.406c-.74-.17-1.022.114-.852.851,1.143,3.4,2.57,6.51,3.971,9.649,1.09,1.182,1.475,3.067,2.841,3.972a4.1,4.1,0,0,0,1.417,1.988c.574.655.945,1.516,1.988,1.7,2.92-1.431,6.277-2.423,9.364-3.689-.994-5.816-2.448-11.174-2.554-17.878-6.1-.9-12.9-1.106-18.446-2.554C566.5,238.137,567.891,239.494,568.718,241.41ZM614.693,238a86.934,86.934,0,0,0,1.131,12.486q7.1-.561,14.759-.567c.762-4.157.552-9.285.568-14.19h-.568A150.916,150.916,0,0,1,614.693,238ZM592.27,254.181c1.919.12,2.682-.913,4.541-.853,1.112-.684,3.146-.45,4.259-1.136,3.008-.583,6.367-.819,9.365-1.418-.173-4.275-.664-8.231-.852-12.486-6.671.046-13.268.023-19.583-.284C590.258,243.9,591.615,248.689,592.27,254.181Zm23.839,2.269a96.255,96.255,0,0,0,.854,14.474c2.359-.855,5.812-.619,8.229-1.419,1.307-1.626,1.46-4.406,2.553-6.244,0-1.514.69-2.338.853-3.69.114-1.136,1-2.621.566-3.405C624.92,256.368,620.662,256.558,616.109,256.45Zm-6.244.283c-.361.015-.391.364-.848.284-2.452-.178-4.05.493-6.53.284-1.44.452-3.517.268-4.822.851-1.609.283-3.465.322-4.259,1.419.584.555.363,1.906.853,2.555,0,1.135.565,1.7.565,2.837a11.81,11.81,0,0,1,.853,2.555,19.364,19.364,0,0,0,1.134,2.553,21.94,21.94,0,0,1,4.259.568h2.837c.893-.137.644.872,1.7.569,2.293-.071,4.939.209,6.812-.284-.322-1.57-.636-3.151-.852-4.825V262.41a10.646,10.646,0,0,1-.284-3.122c-.614-.524.294-2.567-.851-2.555Zm25.258,1.419c-.335,1.177-.557,2.471-.853,3.69-.059,1.084-1.225,2.54-.566,3.406a4.006,4.006,0,0,1,1.419-1.42c.541-.12.714-.611,1.417-.567,1.086-1.375,2.716-2.206,3.41-3.973-1.574-.6-2.656-1.7-4.54-1.987C635.392,257.664,635.043,257.694,635.123,258.152Zm-46.54,2.838c-.065-.221-.24-.328-.57-.283-.865.648-2.32.707-3.4,1.135a17.736,17.736,0,0,1-3.692.85c.327,1,1.4,1.251,1.988,1.988.71.613,1.752.9,2.271,1.7a23.692,23.692,0,0,0,5.391,2.554C590.186,266.009,589.141,263.744,588.583,260.99Z" transform="translate(-558.5 -181.975)" fill-rule="evenodd"/>
</svg>
